<?xml version="1.0" standalone="no"?>
<!DOCTYPE svg PUBLIC "-//W3C//DTD SVG 20010904//EN"
 "http://www.w3.org/TR/2001/REC-SVG-20010904/DTD/svg10.dtd">
<svg version="1.0" xmlns="http://www.w3.org/2000/svg"
 width="700.000000pt" height="700.000000pt" viewBox="0 0 700.000000 700.000000"
 preserveAspectRatio="xMidYMid meet">
<metadata>
Created by potrace 1.14, written by Peter Selinger 2001-2017
</metadata>
<g transform="translate(0.000000,700.000000) scale(0.100000,-0.100000)"
fill="#000000" stroke="none">
<path d="M3812 6864 c-56 -39 -53 51 -53 -1535 0 -1395 1 -1462 18 -1492 10
-18 34 -40 53 -49 33 -17 124 -18 1470 -18 979 0 1447 3 1473 11 81 22 105 83
87 218 -30 218 -103 515 -173 696 -41 108 -137 326 -187 425 -126 251 -364
570 -586 787 -30 29 -54 57 -54 62 0 25 -272 245 -455 370 -157 106 -418 242
-580 303 -431 161 -593 207 -794 228 -142 14 -193 13 -219 -6z m365 -314 c188
-35 550 -163 768 -272 508 -255 931 -642 1217 -1113 31 -49 77 -126 105 -170
50 -82 99 -187 151 -330 17 -44 40 -102 51 -128 42 -97 97 -319 116 -465 l7
-52 -1284 2 -1283 3 -3 1265 c-1 696 0 1271 3 1278 3 7 13 11 22 8 10 -2 69
-14 130 -26z"/>
<path d="M2915 6499 c-145 -18 -469 -94 -615 -144 -332 -116 -481 -196 -831
-447 -198 -142 -298 -229 -471 -409 -323 -336 -556 -719 -706 -1160 -39 -114
-73 -229 -77 -255 -8 -59 -42 -234 -55 -283 -17 -69 -31 -288 -31 -511 -1
-357 46 -645 161 -995 57 -174 140 -368 171 -402 12 -12 37 -25 54 -29 24 -4
36 -15 49 -42 17 -35 43 -76 191 -302 275 -418 703 -793 1175 -1030 333 -167
667 -276 1000 -326 168 -25 187 -26 505 -21 285 4 345 8 440 26 202 40 249 53
478 128 176 58 266 94 395 158 261 131 489 281 654 432 26 24 51 43 55 43 13
1 236 220 290 285 158 193 368 505 451 670 95 190 203 501 250 720 41 187 52
290 62 540 8 229 6 243 -46 284 l-27 21 -1498 0 -1499 0 0 1478 c0 1386 -1
1479 -18 1512 -30 62 -62 70 -262 69 -96 -1 -206 -5 -245 -10z m-540 -522 c66
-24 281 -109 478 -187 l357 -143 0 -546 0 -546 -68 -55 c-37 -30 -112 -90
-167 -135 -55 -44 -136 -111 -180 -149 -44 -38 -118 -98 -165 -134 -47 -37
-110 -87 -140 -113 -30 -26 -111 -90 -179 -143 -93 -72 -129 -94 -145 -90 -11
3 -106 34 -211 70 -104 35 -335 114 -512 173 -177 60 -326 112 -332 116 -6 3
-11 16 -11 28 0 12 -14 74 -31 137 -82 313 -172 717 -162 735 19 31 108 143
189 235 281 322 606 573 944 730 115 53 172 71 200 65 8 -2 69 -24 135 -48z
m-1279 -2116 c16 -5 90 -27 164 -50 74 -22 202 -61 283 -86 81 -24 198 -65
260 -89 62 -24 146 -54 187 -66 127 -37 135 -43 150 -108 7 -31 49 -199 92
-372 43 -173 96 -396 118 -495 22 -99 46 -202 55 -230 26 -85 45 -51 -239
-419 -244 -315 -241 -311 -262 -309 -143 19 -352 48 -489 68 -93 14 -210 30
-260 35 -91 10 -170 24 -236 41 -32 8 -43 21 -107 126 -39 65 -95 170 -125
233 -136 287 -203 511 -257 865 -15 92 -13 100 31 151 23 27 72 89 109 139 38
49 117 146 176 215 59 69 149 178 201 243 51 64 99 117 107 117 7 0 26 -4 42
-9z m5138 -737 c42 -51 41 -64 -51 -442 -45 -185 -80 -286 -172 -489 -28 -62
-51 -115 -51 -118 0 -16 -174 -305 -183 -305 -13 0 -943 -147 -988 -156 -23
-4 -35 7 -116 108 -49 62 -127 165 -173 228 -46 63 -116 156 -155 205 -85 107
-105 138 -105 162 0 9 29 134 64 278 35 143 70 287 76 320 7 33 20 87 30 120
10 33 21 76 24 95 l6 35 884 -5 883 -5 27 -31z m-2057 -1109 c68 -88 151 -198
185 -245 34 -47 80 -108 103 -137 22 -29 50 -69 63 -89 l23 -36 -29 -47 c-16
-25 -65 -109 -109 -186 -127 -223 -211 -370 -293 -515 -102 -181 -107 -187
-143 -199 -18 -6 -97 -23 -177 -38 -141 -27 -154 -28 -475 -27 -270 0 -355 4
-468 19 l-138 20 -53 80 c-62 93 -385 596 -494 768 l-74 118 48 69 c62 87 329
441 394 522 28 34 50 68 50 75 0 11 135 13 732 11 l732 -3 123 -160z"/>
</g>
</svg>
