<?xml version="1.0" encoding="UTF-8"?>
<svg width="231px" height="60px" viewBox="0 0 231 60" version="1.1" xmlns="http://www.w3.org/2000/svg" xmlns:xlink="http://www.w3.org/1999/xlink">
    <title>Group</title>
    <g id="WEB" stroke="none" stroke-width="1" fill="none" fill-rule="evenodd">
        <g id="04-Features-01" transform="translate(-257.000000, -30.000000)" fill="#fff">
            <g id="Group" transform="translate(257.000000, 30.000000)">
                <path d="M33.4800728,0.000119812246 C33.8405325,-0.00328610301 34.2438396,0.0664380531 34.5632041,0.143550199 L34.8817721,0.175394984 C35.279345,0.275339841 35.7223138,0.310735319 36.108259,0.41423087 C36.6866192,0.569378661 37.2600417,0.616286029 37.8125979,0.796368286 C38.2785037,0.948220142 38.7620899,1.05388114 39.2302256,1.21035049 C40.0266457,1.4765092 40.8300743,1.76459304 41.5717006,2.08608207 C42.2758952,2.39133025 42.9949033,2.64479882 43.6264644,3.02550322 C43.7999247,3.13011333 43.9948883,3.17517371 44.16803,3.28026149 C44.7702829,3.64603069 45.4058261,3.957409 45.9997962,4.33113939 C46.8573813,4.87079703 47.6773754,5.45877914 48.4846268,6.05075777 C49.0225289,6.44526688 49.4983102,6.92344817 50.0296817,7.32454915 C50.1907178,7.4461007 50.3152779,7.63323658 50.4756769,7.75445375 C50.621999,7.86684149 50.7603749,7.98920477 50.8898154,8.12066877 C50.9428569,8.17905088 50.9959516,8.23743298 51.0490994,8.29581509 C51.3005873,8.48830334 51.5255313,8.71316252 51.7180922,8.96455557 C51.8209897,9.10000736 51.982663,9.20710137 52.1003739,9.33077059 C52.30957,9.54771116 52.506334,9.77629658 52.6897247,10.0154335 C52.8335582,10.2058653 53.0391938,10.3652007 53.1835052,10.5567948 C53.575981,11.0777596 54.0170384,11.5675323 54.3940636,12.1012669 C54.8639515,12.7666 55.3257158,13.4452919 55.7639062,14.1393331 C56.0232205,14.5502423 56.2452624,14.9852579 56.4966126,15.3972021 C56.7049561,15.7387692 56.8530902,16.1079777 57.0381783,16.4640024 C57.6037958,17.5521387 58.0332255,18.7338986 58.5195196,19.9191615 C58.5789325,20.0640553 58.5923124,20.2021024 58.6469468,20.3490661 C58.816425,20.8050834 58.9546835,21.3064796 59.1088704,21.7820814 C59.3705741,22.5891875 59.4726751,23.4517035 59.6982213,24.2978194 C59.7804118,24.6063954 59.7657577,24.9025519 59.8415769,25.2213182 C60.0209307,25.9754027 60.1609413,26.9681638 59.6026509,27.3867635 C59.1362673,27.7364193 58.5206346,27.6574442 57.7230995,27.6574442 L34.6747029,27.6574442 C33.5240352,27.6574442 32.780816,27.7636466 32.4287983,26.9250142 C32.2690364,26.5446282 32.3491563,25.5649234 32.3491563,25.0302495 L32.3491563,2.50006427 C32.3491563,1.89651006 32.2696736,1.10367046 32.4606551,0.668989147 C32.5724725,0.414676696 32.8391139,0.188419501 33.0977912,0.0798606299 C33.1928837,0.0399431922 33.3985194,0.0502131353 33.4800728,0.000119812246 Z M34.7065597,25.3009301 L57.4841735,25.3009301 L57.4841735,25.2690853 C57.452476,25.2163822 57.4706344,25.1504635 57.4523167,25.0780166 C57.3968859,24.8586061 57.3873288,24.6234323 57.3248895,24.3933538 C57.1539777,23.7631455 57.0786364,23.1101682 56.8788942,22.4985891 C56.6815414,21.8943343 56.5431235,21.229256 56.3054718,20.6515916 C56.1297815,20.2243938 55.9972572,19.7733124 55.8116914,19.3459554 C55.6654686,19.0090376 55.495194,18.6569935 55.3497677,18.3269223 C55.2005186,17.9879345 55.0517473,17.6698051 54.8878441,17.3556563 C54.8268383,17.238786 54.7968929,17.1177758 54.7285601,17.0053637 C54.5576483,16.724015 54.4252833,16.4152799 54.250708,16.1296321 C53.9421749,15.6248923 53.6422431,15.1162196 53.3268608,14.6170049 C52.7883215,13.7645359 52.1384427,12.9940991 51.5428798,12.1968012 C51.471202,12.1008847 51.3598625,12.021432 51.2880254,11.9261205 C50.8971424,11.4070506 50.4353781,10.9503804 49.9818965,10.4931052 C49.4451094,9.95190312 48.9231357,9.37938166 48.3094144,8.91678839 L48.1182735,8.72571968 C47.7954049,8.48311019 47.5020037,8.19930947 47.1784979,7.96144485 C46.3870156,7.37965655 45.5834278,6.80469897 44.7414525,6.27367126 C43.2902158,5.35835661 41.6884558,4.6400338 40.0107173,3.94900197 C39.2475876,3.63472579 38.4261599,3.42921548 37.6214571,3.16880475 C36.7041405,2.87196359 35.7009698,2.74039686 34.7065597,2.53190905 L34.7065597,25.3009301 Z M29.5457577,30.4597853 L55.3179109,30.4597853 C55.4771949,30.4650396 55.6364789,30.4703471 55.795763,30.4757076 C56.2200956,30.5893935 56.518116,30.8559344 56.671825,31.2399825 C56.7522635,31.4407639 56.7755189,31.8749675 56.7196102,32.1316365 C56.6793114,32.3163362 56.7395207,32.5559682 56.7036818,32.720765 C56.6930098,33.0232904 56.6823909,33.3258159 56.671825,33.6283413 C56.6313669,33.8109712 56.6681615,34.0205099 56.6240398,34.2174699 C56.4982055,34.7793711 56.5294251,35.401459 56.4010422,35.9370882 C56.3225152,36.2647711 56.3401957,36.5730286 56.2576866,36.8924318 C56.0187606,37.8175228 55.8949969,38.7586954 55.6046221,39.6310833 C55.285417,40.5899297 54.9838923,41.5506869 54.6011329,42.4334243 C54.4835813,42.7045827 54.413337,42.9674614 54.2825648,43.2295439 C53.9330957,43.9296515 53.6330046,44.6706797 53.2312904,45.3312997 C52.867645,45.9291856 52.5000175,46.5335996 52.1322307,47.1146077 C51.5748959,47.995116 50.9438126,48.7799307 50.3323213,49.5985009 C50.0994481,49.9102613 49.8039763,50.1775983 49.5677581,50.4901548 C49.5199729,50.5326676 49.4721877,50.5751273 49.4244025,50.617534 C49.2726438,50.8142753 49.1076694,51.0004666 48.930622,51.1748177 C48.85098,51.2491753 48.771338,51.3234798 48.691696,51.3977312 C48.5318411,51.607761 48.344311,51.7952203 48.1342019,51.9550149 C48.0227031,52.0717261 47.9112043,52.1884903 47.7997055,52.3053076 C47.450555,52.5693008 47.164003,52.9003274 46.8121446,53.1651168 C46.6178181,53.3114436 46.4504107,53.5123841 46.2546506,53.6587109 C45.6549463,54.1070855 45.0705332,54.5796621 44.4547413,55.0121143 C42.7918162,56.1798625 40.9302639,57.1334546 38.9435144,57.9736793 C37.8482775,58.4368617 36.6729208,58.7213948 35.4870513,59.1041691 C35.1957209,59.1982705 34.9110804,59.2108491 34.6109893,59.2952378 C33.9663669,59.4764347 33.2392354,59.5297747 32.5562255,59.6932976 C32.2308083,59.7711581 31.8842063,59.7498221 31.5686646,59.8206768 C31.1492698,59.8577759 30.7298219,59.8949282 30.3103209,59.9321335 L30.0554665,59.9321335 C29.6883169,60.0109494 29.1978814,59.97799 28.7811944,59.9799007 C28.5696652,59.980856 28.2870954,60.0246426 28.0803448,59.9799007 C27.7139915,59.9746463 27.3476383,59.9693388 26.9812851,59.9639783 C26.812444,59.9267199 26.6091976,59.9730541 26.423791,59.9321335 C26.2955674,59.9037917 26.1394691,59.9327704 25.9937242,59.9002887 C25.5053594,59.8472672 25.0168884,59.7941925 24.5283113,59.7410648 L23.04697,59.5022289 C22.7720458,59.4312151 22.4727511,59.4079684 22.1868363,59.3270826 C21.3322776,59.0853807 20.471666,58.9153295 19.6542205,58.6424197 C15.0127799,57.0923748 11.2464457,54.6707382 8.16984317,51.5569551 C6.8999036,50.2716996 5.78058299,48.842028 4.7293085,47.3375212 C4.4712684,46.9681217 4.26875471,46.5777046 4.02845885,46.1911089 C3.83016618,45.8720242 3.63639718,45.5276228 3.439108,45.2039206 C3.35369991,45.0638035 3.31743094,44.9146107 3.23203878,44.774016 C3.05388644,44.4817992 2.89428768,44.1786759 2.75418674,43.8664396 C2.47575829,43.2340022 2.19294953,42.6010871 1.92590988,41.9557525 C1.72185113,41.4626361 1.5682217,40.942133 1.38434424,40.4431253 C1.06709827,39.5822015 0.907256761,38.6502639 0.651637778,37.7363186 C0.569845437,37.4438242 0.548342096,37.142891 0.476425364,36.860587 L0.253427746,35.4594165 L0.0782153322,33.7716429 C0.0417233649,33.6052539 0.0788683966,33.4264454 0.0463585296,33.2780487 C0.0410490625,33.0392128 0.0357395955,32.8003769 0.0304301284,32.561541 C-0.0225318058,32.3129925 0.0145017271,31.9638144 0.0145017271,31.6858095 C0.0145017271,31.2602039 -0.0339843264,30.6704385 0.0463585296,30.3005613 L0.0463585296,29.9980359 C0.0782153322,29.5894673 0.110072135,29.1807926 0.141928937,28.7720117 C0.210962628,28.4656648 0.179121754,28.1333645 0.253427746,27.8166681 C0.30121295,27.6128615 0.294666377,27.3811907 0.348998154,27.16385 C0.50595662,26.5360301 0.563505934,25.8650605 0.731279784,25.2690853 C0.848226106,24.8536701 0.887378116,24.4591132 1.01799101,24.0589835 C1.38729099,22.9276976 1.69539406,21.8075572 2.1489075,20.7630483 C2.96331072,18.8872313 3.88934019,17.1249409 5.00009132,15.5405036 C5.41214314,14.9527285 5.86243904,14.3937251 6.29029183,13.8208852 C6.43187938,13.6312973 6.62628552,13.4676151 6.76814386,13.2795239 C7.01062192,12.9580349 7.30714503,12.6913666 7.54863553,12.3719475 L7.78756154,12.149034 C7.94633585,11.9391132 8.16347181,11.7906528 8.32912719,11.5917503 C8.49414804,11.3910486 8.68114594,11.2094621 8.88662123,11.050389 L9.10961885,10.8115531 C9.45445281,10.550808 9.73781907,10.2102758 10.0812513,9.95174389 C10.4461869,9.67701894 10.7819098,9.36129382 11.1484542,9.09193471 C11.7268304,8.66690237 12.3005077,8.25468755 12.9165068,7.8659105 C13.830797,7.288883 14.7787917,6.72516662 15.7676906,6.20998169 C17.1039242,5.51387062 18.5964154,4.99288994 20.1161441,4.49036331 C21.0468406,4.18258347 22.0372686,4.02692616 23.0310416,3.77385566 C23.37621,3.68596405 23.7127771,3.69938663 24.0663876,3.61463173 C24.5975998,3.4872526 25.2143475,3.51452765 25.7707266,3.39171824 C25.9744508,3.34673748 26.1880507,3.38509453 26.3760058,3.34395106 L27.2679963,3.31210628 C27.4178825,3.28008635 27.6397652,3.33239141 27.8095619,3.29618389 C28.1083787,3.23249432 28.59085,3.26645678 28.8130512,3.35987346 C29.6647428,3.71796806 29.5457577,4.47125644 29.5457577,5.63677556 L29.5457577,30.4597853 Z M18.2525212,7.67484179 C18.1510573,7.76434155 17.986039,7.79233312 17.8543111,7.8499881 C17.5999346,7.96144485 17.3511329,8.08466824 17.0897479,8.20028073 C16.8847494,8.29103837 16.6576104,8.41942062 16.4685402,8.53465097 C16.3662799,8.59697122 16.2523918,8.61585518 16.1499722,8.67795251 C15.6954394,8.95411048 15.2148795,9.19046247 14.7642013,9.47407212 C12.6258453,10.819769 10.7175591,12.3905927 9.07776205,14.2348674 C8.5167319,14.86584 7.96860375,15.4967966 7.46899352,16.1933217 C7.35749471,16.3487242 6.9733176,16.7628657 6.95928468,16.9575965 C7.05076149,17.0970767 7.03717456,17.325563 7.08671189,17.4989579 C7.20577669,17.9158061 7.26592233,18.355901 7.38935151,18.7886717 C7.77946992,20.1564052 8.00646556,21.6080497 8.39284079,22.9762608 C8.51526648,23.4098276 8.57052211,23.850241 8.69548042,24.2659746 C8.74027108,24.4150082 8.72290912,24.6269353 8.80697923,24.7436464 C8.94499882,24.8589245 9.40281293,24.9394918 9.60339929,25.0143271 C10.2110997,25.2409027 10.8482516,25.4049034 11.4670222,25.6353004 C12.644816,26.0736438 13.8878684,26.4067403 15.0668409,26.8454022 C15.371615,26.9587696 15.6699061,27.018797 15.9747598,27.1320053 C16.4726816,27.3168642 16.9948146,27.4530007 17.5038863,27.6415218 C17.7399452,27.7289357 18.0145509,27.8711227 18.284378,27.8962801 C18.5269675,27.6456616 18.9059042,27.3916995 19.1922969,27.1797724 C19.7091735,26.7973166 20.1847955,26.3549925 20.705495,25.9696706 C20.9689507,25.7747805 21.2067618,25.5279834 21.4700582,25.3327749 C22.3528102,24.6782054 23.1670701,23.9484821 24.0504592,23.2947087 C24.2865181,23.12004 24.4994809,22.8964897 24.7353805,22.7215026 C25.3377926,22.2750387 25.8890746,21.7637707 26.4875046,21.320332 C26.65316,21.1975704 26.8035241,21.0580902 26.9653567,20.9381946 C27.0206282,20.8972741 27.1596832,20.8389981 27.1883543,20.7789707 L27.1883543,11.1936905 C25.6455293,10.5549637 24.0544413,9.98102517 22.5213327,9.33077059 C22.0578162,9.13414497 21.5995561,9.0021961 21.1355618,8.80533164 C20.5060714,8.53826536 19.8510955,8.3126769 19.2082253,8.04105681 C18.9877762,7.94789489 18.7572922,7.8669773 18.523304,7.77037614 C18.4364942,7.73450299 18.3745327,7.68258007 18.2525212,7.67484179 Z M8.23355678,26.6702559 C8.15045831,26.800501 8.02170904,26.8996975 7.93091716,27.0205485 C7.65594516,27.3866043 7.32689625,27.709192 7.05485509,28.0714264 C6.10291011,29.3391673 4.97925697,30.4648804 4.02845885,31.7335766 C3.9569244,31.8289518 3.84544152,31.9085637 3.77360443,32.0042573 C3.51798544,32.3449965 3.23258035,32.6507064 2.97718436,32.9914456 C2.83921255,33.1755085 2.59665486,33.2812332 2.59490273,33.5964966 C2.64041017,33.6745163 2.60352,33.7972779 2.62675953,33.899022 C2.68228594,34.1419977 2.6620728,34.4071055 2.72232994,34.6632968 C2.891171,35.3812375 2.92452507,36.1229025 3.12053997,36.8128198 C3.33582825,37.5705665 3.49834572,38.32895 3.74174762,39.0578771 C4.06216334,40.0175197 4.45467101,40.9351272 4.84080731,41.812451 C5.03354097,42.2503168 5.22280223,42.6776738 5.46201496,43.07032 C5.57004138,43.2475362 5.62550407,43.4355797 5.73279778,43.6116813 C5.9478312,43.9646808 6.16702193,44.3323288 6.38586223,44.6784816 C6.48302548,44.8321327 6.62719344,45.2332178 6.84778587,45.2357654 C6.99942425,45.3284337 7.35101185,45.2978627 7.54863553,45.3472221 C8.06302732,45.4757158 8.64282112,45.4938673 9.15740405,45.6179028 L9.57154249,45.66567 C10.4139319,45.8704319 11.3409967,45.8925641 12.1838003,46.0955746 C12.430133,46.1549651 12.6543253,46.1315592 12.9005784,46.1911089 C13.3844673,46.3082977 13.9144052,46.3094123 14.4137765,46.4299448 C14.7015708,46.4993664 15.0156152,46.4995257 15.3216953,46.5732463 C15.4952353,46.614963 15.7015399,46.6584311 15.8951178,46.6687807 C15.9806533,46.4955451 16.1359552,46.3589309 16.2455426,46.2070313 C16.5109098,45.8390648 16.7955503,45.4881353 17.0578911,45.1243086 C17.7985617,44.0971551 18.5795313,43.1113998 19.3197241,42.0831317 C19.6535834,41.6193124 20.0732967,41.1911593 20.3709985,40.6978835 C20.2666675,40.5383412 20.2577476,40.1996719 20.1957861,39.9972983 C20.0188216,39.4188378 19.9305782,38.8059849 19.7497909,38.2139903 C19.6113731,37.7608391 19.541766,37.2795051 19.3993661,36.8128198 C18.9423802,35.3157965 18.6911893,33.7249903 18.2365928,32.2271708 C18.0631325,31.6557161 17.9755263,31.0656323 17.8065259,30.5075524 C17.7490244,30.3174391 17.7337331,29.9480396 17.6313135,29.8069672 C17.5653699,29.7596777 17.4766488,29.7588815 17.3923875,29.7273552 C17.1934418,29.6531569 16.9811162,29.5985431 16.7711799,29.5203641 C16.084825,29.2644913 15.3660241,29.0793138 14.6686309,28.8197788 C13.6523989,28.4414628 12.5788246,28.1470578 11.5625926,27.7689009 C11.2892772,27.6671569 11.0236233,27.6157275 10.7502442,27.5141427 C10.2366647,27.3233924 9.69806178,27.1832754 9.17333245,26.9887037 C8.87403779,26.8777246 8.55226816,26.7468426 8.23355678,26.6702559 Z M38.3860204,32.8162993 C38.2746809,33.1503511 38.2375677,33.5046243 38.131166,33.8512548 C37.8708959,34.6999183 37.7211689,35.613386 37.4621731,36.4625272 C37.3895396,36.7005669 37.3755226,36.9250727 37.3028891,37.1631124 C37.094227,37.8461831 36.9892589,38.5681043 36.7772518,39.2648682 C36.6902828,39.5508344 36.6452054,39.8568628 36.5542542,40.1565222 C36.5018498,40.3292802 36.4370212,40.5230557 36.4108986,40.7138059 C36.518256,40.8192122 36.5926417,40.9561448 36.6816814,41.080021 C36.870433,41.3425812 37.0789358,41.5933589 37.2710323,41.8602182 C37.4271306,42.0770812 37.6224128,42.2818431 37.7807411,42.4971139 C38.1585628,43.0107703 38.5343138,43.5115295 38.9116576,44.0256635 C39.3672099,44.6464776 39.8606718,45.2430897 40.3133569,45.8726611 C40.5027456,46.1360174 40.7662014,46.3754902 40.9186362,46.6687807 L50.0615385,45.219843 C50.1187215,45.0980367 50.2154069,44.9943819 50.2845361,44.8854727 C50.432511,44.6523689 50.5726809,44.4152845 50.714603,44.1848875 C51.004022,43.7153361 51.2265418,43.2072526 51.511023,42.7359498 C51.6064341,42.5778404 51.650078,42.4087446 51.7340206,42.2423556 C52.0573672,41.6008424 52.3418484,40.90583 52.6260111,40.2202118 C52.743722,39.9363155 52.7937372,39.6498717 52.9127223,39.3604026 C53.1833459,38.7021709 53.3333914,37.9547738 53.5498584,37.2427244 C53.6057671,37.05898 53.6078378,36.8902026 53.6613572,36.7013631 C53.7741303,36.303144 53.8281275,35.8442607 53.93214,35.4275717 C53.9533248,35.2630934 53.9745627,35.098562 53.9958536,34.9339775 C54.096999,34.5145817 54.1715439,33.9039579 54.1869944,33.4372726 C54.1060782,33.3750161 53.7093017,32.9057832 53.6772856,32.8162993 L38.3860204,32.8162993 Z M21.9319819,41.9239078 C21.8446942,42.0753297 21.7132849,42.1995244 21.6134138,42.33789 C21.3791071,42.6627068 21.1279162,42.9725565 20.8966358,43.2932335 C20.1910076,44.2716645 19.4506555,45.2117226 18.7463016,46.1911089 C18.4689881,46.5767493 18.1665078,46.9475818 17.8861679,47.3375212 C17.7837483,47.4798673 17.5696706,47.6379767 17.5357431,47.8311153 C17.6970978,47.9963898 17.7885268,48.24048 17.9180247,48.4361662 C18.2432827,48.9275313 18.5551608,49.4286089 18.8737288,49.9328711 C19.7813291,51.3697078 20.7365554,52.7961949 21.6452706,54.2319171 C21.9641572,54.7357015 22.2865481,55.2313656 22.6009747,55.7286219 C22.6795017,55.8526574 22.91349,56.3142475 23.0151132,56.3655176 C23.1764679,56.4686947 23.534379,56.4556384 23.7478196,56.5088192 C24.1670551,56.6134293 24.6500043,56.6312624 25.0858053,56.7317327 L25.6114426,56.7794998 C26.0303595,56.8732827 26.5501032,56.8115038 26.9812851,56.906879 C27.0899168,56.9309218 27.2426701,56.9032168 27.3317099,56.9228014 L27.8573471,56.9228014 C28.0792298,56.9700909 28.6394316,56.9713647 28.8608364,56.9228014 L29.1953328,56.9228014 C29.4328253,56.9224829 29.7273414,56.9226421 29.9439677,56.8750342 C30.0820669,56.8697798 30.2201131,56.8644723 30.3581061,56.8591118 C30.7827573,56.816599 31.2075147,56.7741393 31.6323782,56.7317327 C31.9874223,56.6494139 32.3698632,56.6626295 32.7314379,56.5725087 C33.3301865,56.4233159 33.9619069,56.3207757 34.5472757,56.1903713 C34.700029,55.8617331 34.9171331,55.5396231 35.1047697,55.2350278 C35.3986487,54.7581521 35.6445832,54.2564375 35.9330466,53.7860901 C36.0711458,53.5609474 36.1616191,53.326729 36.2993998,53.1014272 C36.8772822,52.156274 37.3747262,51.1545963 37.9559535,50.2035518 C38.2885386,49.6593244 38.5752498,49.0826154 38.9116576,48.5317006 C39.0132808,48.3653116 39.2780108,48.0089684 39.3098676,47.8151929 C39.1461237,47.7002333 38.985884,47.3954787 38.8638724,47.2260644 C38.5425966,46.7797598 38.1846854,46.355428 37.8603831,45.9045058 C37.1275174,44.8854727 36.3189917,43.9181874 35.5826218,42.8951737 C35.3465628,42.5673316 35.0539581,42.2667169 34.8339869,41.9239078 L21.9319819,41.9239078 Z" id="Shape"></path>
                <path d="M82.210601,39 C80.8980912,39 79.679918,38.8547718 78.5560814,38.5643154 C77.4322448,38.2738589 76.5093863,37.8713693 75.7875059,37.3568465 C75.5085976,37.1410788 75.3076195,36.9170124 75.1845717,36.6846473 C75.0615239,36.4522822 75,36.153527 75,35.7883817 C75,35.2904564 75.1476574,34.8589212 75.4429721,34.4937759 C75.7382868,34.1286307 76.0828206,33.9460581 76.4765736,33.9460581 C76.6898564,33.9460581 76.8949361,33.9792531 77.0918126,34.0456432 C77.2886891,34.1120332 77.5347847,34.2365145 77.8300994,34.4190871 C78.5027607,34.8008299 79.1713204,35.0746888 79.8357785,35.2406639 C80.5002366,35.406639 81.2508282,35.4896266 82.0875532,35.4896266 C83.0555293,35.4896266 83.7897145,35.3443983 84.2901088,35.0539419 C84.7905032,34.7634855 85.0407004,34.3360996 85.0407004,33.7717842 C85.0407004,33.3900415 84.8069096,33.0622407 84.339328,32.7883817 C83.8717463,32.5145228 82.9817006,32.2448133 81.6691907,31.9792531 C80.0449598,31.6307054 78.7734658,31.2157676 77.8547089,30.7344398 C76.935952,30.253112 76.2920019,29.6846473 75.9228585,29.0290456 C75.5537151,28.373444 75.3691434,27.5809129 75.3691434,26.6514523 C75.3691434,25.5892116 75.6808645,24.626556 76.3043067,23.7634855 C76.9277489,22.9004149 77.7849819,22.2240664 78.8760057,21.7344398 C79.9670295,21.2448133 81.1934059,21 82.5551349,21 C83.7528001,21 84.8192144,21.1327801 85.7543777,21.3983402 C86.6895409,21.6639004 87.5426723,22.0788382 88.3137719,22.6431535 C88.6090866,22.8589212 88.8182679,23.0871369 88.9413157,23.3278008 C89.0643635,23.5684647 89.1258874,23.8630705 89.1258874,24.2116183 C89.1258874,24.7095436 88.9823316,25.1410788 88.6952201,25.5062241 C88.4081085,25.8713693 88.0676763,26.0539419 87.6739233,26.0539419 C87.4606405,26.0539419 87.263764,26.0248963 87.0832939,25.966805 C86.9028238,25.9087137 86.648525,25.780083 86.3203975,25.5809129 C86.2383657,25.5311203 86.0045749,25.4024896 85.6190251,25.1950207 C85.2334753,24.9875519 84.7823,24.8215768 84.2654993,24.6970954 C83.7486985,24.5726141 83.1867802,24.5103734 82.5797444,24.5103734 C81.7430194,24.5103734 81.0703581,24.6721992 80.5617605,24.9958506 C80.053163,25.3195021 79.7988642,25.746888 79.7988642,26.2780083 C79.7988642,26.593361 79.8890992,26.8506224 80.0695693,27.0497925 C80.2500394,27.2489627 80.5863701,27.4439834 81.0785613,27.6348548 C81.5707525,27.8257261 82.3008361,28.0207469 83.2688121,28.219917 C84.8438239,28.5684647 86.0825051,28.9875519 86.9848557,29.4771784 C87.8872062,29.966805 88.5270547,30.5352697 88.9044013,31.1825726 C89.2817479,31.8298755 89.4704212,32.593361 89.4704212,33.473029 C89.4704212,34.5684647 89.1669033,35.5352697 88.5598675,36.373444 C87.9528317,37.2116183 87.1038019,37.8589212 86.012778,38.3153527 C84.9217542,38.7717842 83.6543619,39 82.210601,39 Z" id="Path" fill-rule="nonzero"></path>
                <path d="M100.274018,39 C98.5021297,39 96.9640322,38.6307054 95.6597255,37.8921162 C94.3554188,37.153527 93.3505285,36.1078838 92.6450544,34.7551867 C91.9395804,33.4024896 91.5868434,31.813278 91.5868434,29.9875519 C91.5868434,28.1618257 91.9395804,26.5726141 92.6450544,25.219917 C93.3505285,23.8672199 94.3554188,22.8257261 95.6597255,22.0954357 C96.9640322,21.3651452 98.5021297,21 100.274018,21 C102.045906,21 103.584004,21.3651452 104.88831,22.0954357 C106.192617,22.8257261 107.193406,23.8672199 107.890677,25.219917 C108.587948,26.5726141 108.936583,28.1618257 108.936583,29.9875519 C108.936583,31.813278 108.583846,33.4024896 107.878372,34.7551867 C107.172898,36.1078838 106.168008,37.153527 104.863701,37.8921162 C103.559394,38.6307054 102.0295,39 100.274018,39 Z M100.274018,35.4896266 C101.586528,35.4896266 102.611926,35.0207469 103.350213,34.0829876 C104.0885,33.1452282 104.457643,31.780083 104.457643,29.9875519 C104.457643,28.1950207 104.084398,26.8340249 103.337908,25.9045643 C102.591418,24.9751037 101.570121,24.5103734 100.274018,24.5103734 C98.9615081,24.5103734 97.9361098,24.9709544 97.197823,25.8921162 C96.4595362,26.813278 96.0903928,28.1784232 96.0903928,29.9875519 C96.0903928,31.7966805 96.4595362,33.1659751 97.197823,34.0954357 C97.9361098,35.0248963 98.9615081,35.4896266 100.274018,35.4896266 Z" id="Shape" fill-rule="nonzero"></path>
                <path d="M119.838618,39 C118.099543,39 116.577851,38.6348548 115.273545,37.9045643 C113.969238,37.1742739 112.960246,36.1286307 112.246569,34.7676349 C111.532892,33.406639 111.176053,31.813278 111.176053,29.9875519 C111.176053,28.1784232 111.532892,26.593361 112.246569,25.2323651 C112.960246,23.8713693 113.969238,22.8257261 115.273545,22.0954357 C116.577851,21.3651452 118.099543,21 119.838618,21 C121.922227,21 123.751538,21.5560166 125.32655,22.6680498 C125.605458,22.8672199 125.806436,23.0829876 125.929484,23.3153527 C126.052532,23.5477178 126.114056,23.846473 126.114056,24.2116183 C126.114056,24.7261411 125.9705,25.1618257 125.683389,25.5186722 C125.396277,25.8755187 125.047642,26.0539419 124.637482,26.0539419 C124.391387,26.0539419 124.169901,26.0165975 123.973024,25.9419087 C123.776148,25.8672199 123.546458,25.746888 123.283956,25.5809129 C122.709733,25.2323651 122.168323,24.9834025 121.659726,24.8340249 C121.151128,24.6846473 120.626124,24.6099585 120.084714,24.6099585 C118.624546,24.6099585 117.537624,25.0539419 116.823947,25.9419087 C116.11027,26.8298755 115.753431,28.1784232 115.753431,29.9875519 C115.753431,31.813278 116.11027,33.1701245 116.823947,34.0580913 C117.537624,34.9460581 118.624546,35.3900415 120.084714,35.3900415 C120.576905,35.3900415 121.05269,35.3112033 121.512068,35.153527 C121.971447,34.9958506 122.562076,34.7510373 123.283956,34.4190871 C123.62849,34.2365145 123.882789,34.1120332 124.046853,34.0456432 C124.210917,33.9792531 124.407793,33.9460581 124.637482,33.9460581 C125.047642,33.9460581 125.396277,34.1244813 125.683389,34.4813278 C125.9705,34.8381743 126.114056,35.2738589 126.114056,35.7883817 C126.114056,36.1369295 126.052532,36.4315353 125.929484,36.6721992 C125.806436,36.9128631 125.605458,37.1327801 125.32655,37.3319502 C123.751538,38.4439834 121.922227,39 119.838618,39 Z" id="Path" fill-rule="nonzero"></path>
                <path d="M136.5239,39 C134.784824,39 133.263133,38.6348548 131.958826,37.9045643 C130.65452,37.1742739 129.645528,36.1286307 128.93185,34.7676349 C128.218173,33.406639 127.861335,31.813278 127.861335,29.9875519 C127.861335,28.1784232 128.218173,26.593361 128.93185,25.2323651 C129.645528,23.8713693 130.65452,22.8257261 131.958826,22.0954357 C133.263133,21.3651452 134.784824,21 136.5239,21 C138.607509,21 140.43682,21.5560166 142.011832,22.6680498 C142.29074,22.8672199 142.491718,23.0829876 142.614766,23.3153527 C142.737814,23.5477178 142.799337,23.846473 142.799337,24.2116183 C142.799337,24.7261411 142.655782,25.1618257 142.36867,25.5186722 C142.081559,25.8755187 141.732923,26.0539419 141.322764,26.0539419 C141.076668,26.0539419 140.855182,26.0165975 140.658306,25.9419087 C140.461429,25.8672199 140.23174,25.746888 139.969238,25.5809129 C139.395015,25.2323651 138.853605,24.9834025 138.345007,24.8340249 C137.83641,24.6846473 137.311406,24.6099585 136.769995,24.6099585 C135.309828,24.6099585 134.222906,25.0539419 133.509229,25.9419087 C132.795551,26.8298755 132.438713,28.1784232 132.438713,29.9875519 C132.438713,31.813278 132.795551,33.1701245 133.509229,34.0580913 C134.222906,34.9460581 135.309828,35.3900415 136.769995,35.3900415 C137.262186,35.3900415 137.737971,35.3112033 138.19735,35.153527 C138.656728,34.9958506 139.247358,34.7510373 139.969238,34.4190871 C140.313772,34.2365145 140.568071,34.1120332 140.732134,34.0456432 C140.896198,33.9792531 141.093075,33.9460581 141.322764,33.9460581 C141.732923,33.9460581 142.081559,34.1244813 142.36867,34.4813278 C142.655782,34.8381743 142.799337,35.2738589 142.799337,35.7883817 C142.799337,36.1369295 142.737814,36.4315353 142.614766,36.6721992 C142.491718,36.9128631 142.29074,37.1327801 142.011832,37.3319502 C140.43682,38.4439834 138.607509,39 136.5239,39 Z" id="Path" fill-rule="nonzero"></path>
                <path d="M147.081401,38.7759336 C146.40874,38.7759336 145.891939,38.593361 145.530999,38.2282158 C145.170058,37.8630705 144.989588,37.340249 144.989588,36.659751 L144.989588,23.340249 C144.989588,22.659751 145.170058,22.1369295 145.530999,21.7717842 C145.891939,21.406639 146.40874,21.2240664 147.081401,21.2240664 L155.596309,21.2240664 C156.301783,21.2240664 156.83499,21.373444 157.19593,21.6721992 C157.55687,21.9709544 157.73734,22.4024896 157.73734,22.966805 C157.73734,24.1618257 157.023663,24.7593361 155.596309,24.7593361 L149.394699,24.7593361 L149.394699,28.0954357 L155.104117,28.0954357 C156.531472,28.0954357 157.245149,28.6846473 157.245149,29.8630705 C157.245149,30.4273859 157.064679,30.8589212 156.703739,31.1576763 C156.342799,31.4564315 155.809591,31.6058091 155.104117,31.6058091 L149.394699,31.6058091 L149.394699,35.2406639 L155.596309,35.2406639 C157.023663,35.2406639 157.73734,35.8381743 157.73734,37.033195 C157.73734,37.5975104 157.55687,38.0290456 157.19593,38.3278008 C156.83499,38.626556 156.301783,38.7759336 155.596309,38.7759336 L147.081401,38.7759336 Z" id="Path" fill-rule="nonzero"></path>
                <path d="M174.274965,35.8630705 C174.570279,36.3112033 174.717937,36.7344398 174.717937,37.1327801 C174.717937,37.6639004 174.500552,38.1078838 174.065783,38.4647303 C173.631014,38.8215768 173.126518,39 172.552295,39 C172.158542,39 171.789399,38.9087137 171.444865,38.7261411 C171.100331,38.5435685 170.805017,38.2697095 170.558921,37.9045643 L167.359678,33.1742739 C167.129989,32.8423237 166.887995,32.5975104 166.633696,32.439834 C166.379397,32.2821577 166.079981,32.2033195 165.735447,32.2033195 L164.135826,32.2033195 L164.135826,36.659751 C164.135826,37.3568465 163.938949,37.9087137 163.545196,38.3153527 C163.151443,38.7219917 162.610033,38.9253112 161.920965,38.9253112 C161.231898,38.9253112 160.686386,38.7219917 160.28443,38.3153527 C159.882474,37.9087137 159.681496,37.3568465 159.681496,36.659751 L159.681496,23.340249 C159.681496,22.659751 159.861966,22.1369295 160.222906,21.7717842 C160.583846,21.406639 161.100647,21.2240664 161.773308,21.2240664 L167.950308,21.2240664 C170.050323,21.2240664 171.629437,21.6846473 172.687648,22.6058091 C173.745859,23.526971 174.274965,24.8589212 174.274965,26.6016598 C174.274965,27.9294606 173.914024,29.0539419 173.192144,29.9751037 C172.470263,30.8962656 171.453068,31.5145228 170.140558,31.8298755 C170.681969,31.9128631 171.153652,32.0954357 171.555608,32.3775934 C171.957564,32.659751 172.355419,33.0829876 172.749172,33.6473029 L174.274965,35.8630705 Z M167.23663,28.7676349 C168.237419,28.7676349 168.955198,28.6099585 169.389967,28.2946058 C169.824736,27.9792531 170.04212,27.4647303 170.04212,26.7510373 C170.04212,26.0207469 169.824736,25.4937759 169.389967,25.1701245 C168.955198,24.846473 168.237419,24.6846473 167.23663,24.6846473 L164.086607,24.6846473 L164.086607,28.7676349 L167.23663,28.7676349 Z" id="Shape" fill-rule="nonzero"></path>
                <path d="M192.486039,21.0995851 C193.109481,21.0995851 193.618079,21.3070539 194.011832,21.7219917 C194.405584,22.1369295 194.602461,22.6763485 194.602461,23.340249 L194.602461,36.8838174 C194.602461,37.5145228 194.421991,38.0124481 194.061051,38.3775934 C193.70011,38.7427386 193.224326,38.9253112 192.633696,38.9253112 C192.059473,38.9253112 191.58779,38.7427386 191.218646,38.3775934 C190.849503,38.0124481 190.664931,37.5145228 190.664931,36.8838174 L190.664931,29.5643154 L187.859442,34.7925311 C187.580533,35.3236515 187.285218,35.7012448 186.973497,35.9253112 C186.661776,36.1493776 186.292633,36.2614108 185.866067,36.2614108 C185.439501,36.2614108 185.070358,36.1493776 184.758637,35.9253112 C184.446916,35.7012448 184.151601,35.3236515 183.872693,34.7925311 L181.091813,29.7136929 L181.091813,36.8838174 C181.091813,37.4979253 180.907241,37.9917012 180.538097,38.3651452 C180.168954,38.7385892 179.689068,38.9253112 179.098438,38.9253112 C178.524215,38.9253112 178.052532,38.7427386 177.683389,38.3775934 C177.314245,38.0124481 177.129673,37.5145228 177.129673,36.8838174 L177.129673,23.340249 C177.129673,22.6763485 177.330652,22.1369295 177.732608,21.7219917 C178.134564,21.3070539 178.647263,21.0995851 179.270705,21.0995851 C179.713677,21.0995851 180.115633,21.2282158 180.476574,21.4854772 C180.837514,21.7427386 181.141032,22.1120332 181.387127,22.593361 L185.915286,31.2074689 L190.418836,22.593361 C190.927433,21.5975104 191.616501,21.0995851 192.486039,21.0995851 Z" id="Path" fill-rule="nonzero"></path>
                <path d="M214.413157,35.9626556 C214.560814,36.2780083 214.634643,36.5850622 214.634643,36.8838174 C214.634643,37.4315353 214.417258,37.8962656 213.982489,38.2780083 C213.54772,38.659751 213.051428,38.8506224 212.493611,38.8506224 C212.116264,38.8506224 211.771731,38.7510373 211.460009,38.5518672 C211.148288,38.3526971 210.902193,38.0539419 210.721723,37.6556017 L209.614292,35.1410788 L201.640795,35.1410788 L200.508755,37.6556017 C200.328285,38.0539419 200.078088,38.3526971 199.758164,38.5518672 C199.438239,38.7510373 199.089604,38.8506224 198.712257,38.8506224 C198.154441,38.8506224 197.649945,38.659751 197.19877,38.2780083 C196.747594,37.8962656 196.522007,37.4315353 196.522007,36.8838174 C196.522007,36.5850622 196.595835,36.2780083 196.743493,35.9626556 L203.240416,22.4688797 C203.453699,22.0207469 203.769522,21.6763485 204.187885,21.4356846 C204.606247,21.1950207 205.069727,21.0746888 205.578325,21.0746888 C206.070516,21.0746888 206.529894,21.1950207 206.95646,21.4356846 C207.383026,21.6763485 207.70295,22.0207469 207.916233,22.4688797 L214.413157,35.9626556 Z M203.166588,31.7053942 L208.0885,31.7053942 L205.627544,26.153527 L203.166588,31.7053942 Z" id="Shape" fill-rule="nonzero"></path>
                <path d="M218.769049,38.9253112 C218.079981,38.9253112 217.534469,38.7219917 217.132513,38.3153527 C216.730557,37.9087137 216.529579,37.3568465 216.529579,36.659751 L216.529579,23.340249 C216.529579,22.659751 216.710049,22.1369295 217.070989,21.7717842 C217.431929,21.406639 217.94873,21.2240664 218.621391,21.2240664 L224.921439,21.2240664 C226.840984,21.2240664 228.333964,21.7178423 229.400379,22.7053942 C230.466793,23.6929461 231,25.06639 231,26.8257261 C231,28.5684647 230.462691,29.9377593 229.388074,30.93361 C228.313456,31.9294606 226.824578,32.4273859 224.921439,32.4273859 L221.057738,32.4273859 L221.057738,36.659751 C221.057738,37.3568465 220.852658,37.9087137 220.442499,38.3153527 C220.032339,38.7219917 219.474523,38.9253112 218.769049,38.9253112 Z M224.3062,28.9917012 C225.142925,28.9917012 225.762265,28.8174274 226.164221,28.4688797 C226.566178,28.120332 226.767156,27.5809129 226.767156,26.8506224 C226.767156,25.406639 225.946837,24.6846473 224.3062,24.6846473 L221.057738,24.6846473 L221.057738,28.9917012 L224.3062,28.9917012 Z" id="Shape" fill-rule="nonzero"></path>
            </g>
        </g>
    </g>
</svg>