<?xml version="1.0" encoding="utf-8"?>
<!-- Generator: Adobe Illustrator 23.0.1, SVG Export Plug-In . SVG Version: 6.00 Build 0)  -->
<svg version="1.1" id="katman_1" xmlns="http://www.w3.org/2000/svg" xmlns:xlink="http://www.w3.org/1999/xlink" x="0px" y="0px"
	 viewBox="0 0 60 60" style="enable-background:new 0 0 60 60;" xml:space="preserve">
<style type="text/css">
	.st0{fill-rule:evenodd;clip-rule:evenodd;fill:#002043;}
</style>
<path class="st0" d="M33.4,1c0.3,0,0.7,0.1,1,0.1l0.3,0c0.4,0.1,0.8,0.1,1.2,0.2c0.6,0.1,1.1,0.2,1.6,0.4C38,1.9,38.5,2,38.9,2.2
	c0.8,0.3,1.5,0.5,2.3,0.8c0.7,0.3,1.4,0.5,2,0.9c0.2,0.1,0.4,0.1,0.5,0.2c0.6,0.4,1.2,0.7,1.8,1c0.8,0.5,1.6,1.1,2.4,1.7
	c0.5,0.4,1,0.8,1.5,1.2c0.2,0.1,0.3,0.3,0.4,0.4c0.1,0.1,0.3,0.2,0.4,0.4C50.2,8.9,50.3,9,50.3,9c0.2,0.2,0.5,0.4,0.6,0.6
	c0.1,0.1,0.3,0.2,0.4,0.4c0.2,0.2,0.4,0.4,0.6,0.7c0.1,0.2,0.3,0.3,0.5,0.5c0.4,0.5,0.8,1,1.2,1.5c0.5,0.6,0.9,1.3,1.3,2
	c0.3,0.4,0.5,0.8,0.7,1.2c0.2,0.3,0.3,0.7,0.5,1c0.5,1.1,1,2.2,1.4,3.3c0.1,0.1,0.1,0.3,0.1,0.4c0.2,0.4,0.3,0.9,0.4,1.4
	c0.3,0.8,0.4,1.6,0.6,2.4c0.1,0.3,0.1,0.6,0.1,0.9c0.2,0.7,0.3,1.7-0.2,2.1c-0.5,0.3-1,0.3-1.8,0.3H34.5c-1.1,0-1.8,0.1-2.2-0.7
	c-0.2-0.4-0.1-1.3-0.1-1.8V3.4c0-0.6-0.1-1.3,0.1-1.8c0.1-0.2,0.4-0.5,0.6-0.6C33.1,1,33.3,1,33.4,1z M34.5,25.5h22v0
	c0-0.1,0-0.1,0-0.2c-0.1-0.2-0.1-0.4-0.1-0.7c-0.2-0.6-0.2-1.2-0.4-1.8c-0.2-0.6-0.3-1.2-0.6-1.8c-0.2-0.4-0.3-0.8-0.5-1.3
	c-0.1-0.3-0.3-0.7-0.4-1c-0.1-0.3-0.3-0.6-0.4-0.9c-0.1-0.1-0.1-0.2-0.2-0.3c-0.2-0.3-0.3-0.6-0.5-0.8c-0.3-0.5-0.6-1-0.9-1.5
	c-0.5-0.8-1.1-1.6-1.7-2.3c-0.1-0.1-0.2-0.2-0.2-0.3c-0.4-0.5-0.8-0.9-1.3-1.4c-0.5-0.5-1-1.1-1.6-1.5l-0.2-0.2
	c-0.3-0.2-0.6-0.5-0.9-0.7c-0.8-0.6-1.5-1.1-2.4-1.6c-1.4-0.9-3-1.6-4.6-2.2c-0.7-0.3-1.5-0.5-2.3-0.8c-0.9-0.3-1.9-0.4-2.8-0.6
	V25.5z M29.6,30.4h24.9c0.2,0,0.3,0,0.5,0c0.4,0.1,0.7,0.4,0.8,0.7c0.1,0.2,0.1,0.6,0,0.9c0,0.2,0,0.4,0,0.6c0,0.3,0,0.6,0,0.9
	c0,0.2,0,0.4,0,0.6c-0.1,0.5-0.1,1.1-0.2,1.7c-0.1,0.3-0.1,0.6-0.1,0.9c-0.2,0.9-0.4,1.8-0.6,2.6c-0.3,0.9-0.6,1.9-1,2.7
	c-0.1,0.3-0.2,0.5-0.3,0.8c-0.3,0.7-0.6,1.4-1,2c-0.4,0.6-0.7,1.2-1.1,1.7c-0.5,0.9-1.1,1.6-1.7,2.4c-0.2,0.3-0.5,0.6-0.7,0.9
	c0,0-0.1,0.1-0.1,0.1c-0.1,0.2-0.3,0.4-0.5,0.5c-0.1,0.1-0.2,0.1-0.2,0.2c-0.2,0.2-0.3,0.4-0.5,0.5c-0.1,0.1-0.2,0.2-0.3,0.3
	c-0.3,0.3-0.6,0.6-1,0.8c-0.2,0.1-0.3,0.3-0.5,0.5c-0.6,0.4-1.1,0.9-1.7,1.3c-1.6,1.1-3.4,2.1-5.3,2.9c-1.1,0.4-2.2,0.7-3.3,1.1
	c-0.3,0.1-0.6,0.1-0.8,0.2c-0.6,0.2-1.3,0.2-2,0.4c-0.3,0.1-0.6,0.1-1,0.1c-0.4,0-0.8,0.1-1.2,0.1h-0.2c-0.4,0.1-0.8,0-1.2,0
	c-0.2,0-0.5,0-0.7,0c-0.4,0-0.7,0-1.1,0c-0.2,0-0.4,0-0.5,0c-0.1,0-0.3,0-0.4,0c-0.5-0.1-0.9-0.1-1.4-0.2l-1.4-0.2
	c-0.3-0.1-0.6-0.1-0.8-0.2c-0.8-0.2-1.7-0.4-2.4-0.7c-4.5-1.5-8.1-3.8-11.1-6.8c-1.2-1.2-2.3-2.6-3.3-4.1c-0.2-0.4-0.4-0.7-0.7-1.1
	c-0.2-0.3-0.4-0.6-0.6-1c-0.1-0.1-0.1-0.3-0.2-0.4C4,44,3.8,43.7,3.7,43.4c-0.3-0.6-0.5-1.2-0.8-1.8c-0.2-0.5-0.3-1-0.5-1.5
	c-0.3-0.8-0.5-1.7-0.7-2.6c-0.1-0.3-0.1-0.6-0.2-0.8l-0.2-1.4l-0.2-1.6c0-0.2,0-0.3,0-0.5c0-0.2,0-0.5,0-0.7c-0.1-0.2,0-0.6,0-0.8
	c0-0.4,0-1,0-1.3V30c0-0.4,0.1-0.8,0.1-1.2c0.1-0.3,0-0.6,0.1-0.9c0-0.2,0-0.4,0.1-0.6c0.2-0.6,0.2-1.3,0.4-1.8
	C1.8,25,1.9,24.6,2,24.3c0.4-1.1,0.7-2.2,1.1-3.2c0.8-1.8,1.7-3.5,2.8-5c0.4-0.6,0.8-1.1,1.2-1.7c0.1-0.2,0.3-0.3,0.5-0.5
	c0.2-0.3,0.5-0.6,0.8-0.9l0.2-0.2c0.2-0.2,0.4-0.3,0.5-0.5c0.2-0.2,0.3-0.4,0.5-0.5l0.2-0.2c0.3-0.3,0.6-0.6,0.9-0.8
	c0.4-0.3,0.7-0.6,1-0.8c0.6-0.4,1.1-0.8,1.7-1.2C14.4,8,15.3,7.5,16.2,7c1.3-0.7,2.7-1.2,4.2-1.7c0.9-0.3,1.9-0.4,2.8-0.7
	c0.3-0.1,0.7-0.1,1-0.2c0.5-0.1,1.1-0.1,1.6-0.2c0.2,0,0.4,0,0.6,0l0.9,0c0.1,0,0.4,0,0.5,0c0.3-0.1,0.8,0,1,0.1
	c0.8,0.3,0.7,1.1,0.7,2.2V30.4z M18.6,8.4c-0.1,0.1-0.3,0.1-0.4,0.2c-0.2,0.1-0.5,0.2-0.7,0.3c-0.2,0.1-0.4,0.2-0.6,0.3
	c-0.1,0.1-0.2,0.1-0.3,0.1c-0.4,0.3-0.9,0.5-1.3,0.8c-2.1,1.3-3.9,2.8-5.5,4.6c-0.5,0.6-1.1,1.2-1.6,1.9c-0.1,0.2-0.5,0.6-0.5,0.7
	c0.1,0.1,0.1,0.4,0.1,0.5C8,18.3,8,18.7,8.1,19.2c0.4,1.3,0.6,2.7,1,4c0.1,0.4,0.2,0.8,0.3,1.2c0,0.1,0,0.3,0.1,0.5
	c0.1,0.1,0.6,0.2,0.8,0.3c0.6,0.2,1.2,0.4,1.8,0.6c1.1,0.4,2.3,0.7,3.5,1.2c0.3,0.1,0.6,0.2,0.9,0.3c0.5,0.2,1,0.3,1.5,0.5
	c0.2,0.1,0.5,0.2,0.8,0.2c0.2-0.2,0.6-0.5,0.9-0.7c0.5-0.4,1-0.8,1.5-1.2c0.3-0.2,0.5-0.4,0.7-0.6c0.9-0.6,1.6-1.3,2.5-2
	c0.2-0.2,0.4-0.4,0.7-0.6c0.6-0.4,1.1-0.9,1.7-1.4c0.2-0.1,0.3-0.3,0.5-0.4c0.1,0,0.2-0.1,0.2-0.2v-9.3c-1.5-0.6-3-1.2-4.5-1.8
	c-0.4-0.2-0.9-0.3-1.3-0.5c-0.6-0.3-1.2-0.5-1.9-0.7c-0.2-0.1-0.4-0.2-0.7-0.3C18.8,8.5,18.8,8.4,18.6,8.4z M9,26.8
	c-0.1,0.1-0.2,0.2-0.3,0.3c-0.3,0.4-0.6,0.7-0.8,1c-0.9,1.2-2,2.3-2.9,3.5c-0.1,0.1-0.2,0.2-0.2,0.3c-0.2,0.3-0.5,0.6-0.8,1
	c-0.1,0.2-0.4,0.3-0.4,0.6c0,0.1,0,0.2,0,0.3c0.1,0.2,0,0.5,0.1,0.7c0.2,0.7,0.2,1.4,0.4,2.1c0.2,0.7,0.4,1.5,0.6,2.2
	c0.3,0.9,0.7,1.8,1.1,2.7c0.2,0.4,0.4,0.8,0.6,1.2c0.1,0.2,0.2,0.4,0.3,0.5c0.2,0.3,0.4,0.7,0.6,1c0.1,0.1,0.2,0.5,0.4,0.5
	c0.1,0.1,0.5,0.1,0.7,0.1C8.8,45,9.4,45,9.9,45.1l0.4,0c0.8,0.2,1.7,0.2,2.5,0.4c0.2,0.1,0.5,0,0.7,0.1c0.5,0.1,1,0.1,1.5,0.2
	c0.3,0.1,0.6,0.1,0.9,0.1c0.2,0,0.4,0.1,0.6,0.1c0.1-0.2,0.2-0.3,0.3-0.4c0.3-0.4,0.5-0.7,0.8-1c0.7-1,1.5-1.9,2.2-2.9
	c0.3-0.4,0.7-0.9,1-1.3c-0.1-0.2-0.1-0.5-0.2-0.7c-0.2-0.6-0.3-1.2-0.4-1.7c-0.1-0.4-0.2-0.9-0.3-1.4c-0.4-1.4-0.7-3-1.1-4.4
	c-0.2-0.6-0.3-1.1-0.4-1.7c-0.1-0.2-0.1-0.5-0.2-0.7c-0.1,0-0.1,0-0.2-0.1c-0.2-0.1-0.4-0.1-0.6-0.2c-0.7-0.2-1.4-0.4-2-0.7
	c-1-0.4-2-0.7-3-1c-0.3-0.1-0.5-0.1-0.8-0.2c-0.5-0.2-1-0.3-1.5-0.5C9.6,27,9.3,26.9,9,26.8z M38.1,32.7c-0.1,0.3-0.1,0.7-0.2,1
	c-0.3,0.8-0.4,1.7-0.6,2.5c-0.1,0.2-0.1,0.4-0.2,0.7c-0.2,0.7-0.3,1.4-0.5,2c-0.1,0.3-0.1,0.6-0.2,0.9c-0.1,0.2-0.1,0.4-0.1,0.5
	c0.1,0.1,0.2,0.2,0.3,0.4c0.2,0.3,0.4,0.5,0.6,0.8c0.2,0.2,0.3,0.4,0.5,0.6c0.4,0.5,0.7,1,1.1,1.5c0.4,0.6,0.9,1.2,1.4,1.8
	c0.2,0.3,0.4,0.5,0.6,0.8l8.8-1.4c0.1-0.1,0.1-0.2,0.2-0.3c0.1-0.2,0.3-0.5,0.4-0.7c0.3-0.5,0.5-0.9,0.8-1.4
	c0.1-0.2,0.1-0.3,0.2-0.5c0.3-0.6,0.6-1.3,0.9-2c0.1-0.3,0.2-0.6,0.3-0.8c0.3-0.6,0.4-1.4,0.6-2c0.1-0.2,0.1-0.3,0.1-0.5
	c0.1-0.4,0.2-0.8,0.3-1.2c0-0.2,0-0.3,0.1-0.5c0.1-0.4,0.2-1,0.2-1.4c-0.1-0.1-0.5-0.5-0.5-0.6H38.1z M22.2,41.5
	c-0.1,0.1-0.2,0.3-0.3,0.4c-0.2,0.3-0.5,0.6-0.7,0.9c-0.7,0.9-1.4,1.9-2.1,2.8c-0.3,0.4-0.6,0.7-0.8,1.1c-0.1,0.1-0.3,0.3-0.3,0.5
	c0.2,0.2,0.2,0.4,0.4,0.6c0.3,0.5,0.6,1,0.9,1.4c0.9,1.4,1.8,2.8,2.7,4.2c0.3,0.5,0.6,1,0.9,1.4c0.1,0.1,0.3,0.6,0.4,0.6
	c0.2,0.1,0.5,0.1,0.7,0.1c0.4,0.1,0.9,0.1,1.3,0.2l0.5,0c0.4,0.1,0.9,0,1.3,0.1c0.1,0,0.3,0,0.3,0h0.5c0.2,0,0.8,0,1,0h0.3
	c0.2,0,0.5,0,0.7,0c0.1,0,0.3,0,0.4,0c0.4,0,0.8-0.1,1.2-0.1c0.3-0.1,0.7-0.1,1.1-0.2c0.6-0.1,1.2-0.2,1.8-0.4
	c0.1-0.3,0.4-0.6,0.5-0.9c0.3-0.5,0.5-0.9,0.8-1.4c0.1-0.2,0.2-0.4,0.4-0.7c0.6-0.9,1-1.9,1.6-2.8c0.3-0.5,0.6-1.1,0.9-1.6
	c0.1-0.2,0.4-0.5,0.4-0.7c-0.2-0.1-0.3-0.4-0.4-0.6c-0.3-0.4-0.7-0.8-1-1.3c-0.7-1-1.5-1.9-2.2-2.9c-0.2-0.3-0.5-0.6-0.7-0.9H22.2z"
	/>
</svg>
